<?xml version="1.0" standalone="no"?>
<!DOCTYPE svg PUBLIC "-//W3C//DTD SVG 20010904//EN"
 "http://www.w3.org/TR/2001/REC-SVG-20010904/DTD/svg10.dtd">
<svg version="1.0" xmlns="http://www.w3.org/2000/svg"
 width="500.000000pt" height="500.000000pt" viewBox="0 0 500.000000 500.000000"
 preserveAspectRatio="xMidYMid meet">

<g transform="translate(0.000000,500.000000) scale(0.100000,-0.100000)"
fill="#000000" stroke="none">
<path d="M2183 3433 c-22 -8 -14 -33 14 -44 20 -8 24 -12 14 -22 -9 -9 -14 -9
-21 3 -5 8 -12 11 -15 8 -11 -11 5 -28 26 -28 31 0 36 30 8 52 l-24 20 23 -5
c15 -4 22 -1 19 6 -4 13 -26 18 -44 10z"/>
<path d="M2253 3395 c0 -27 2 -38 4 -22 2 15 2 37 0 50 -2 12 -4 0 -4 -28z"/>
<path d="M2280 3395 c0 -25 5 -45 10 -45 6 0 10 12 10 28 l1 27 17 -27 c24
-40 32 -35 31 20 -2 42 -2 44 -8 14 l-6 -34 -18 31 c-25 43 -37 39 -37 -14z"/>
<path d="M2382 3428 c-7 -7 -12 -21 -12 -33 0 -41 45 -60 70 -30 14 17 0 21
-17 4 -16 -16 -33 -2 -33 28 0 23 3 25 31 19 27 -5 30 -4 19 9 -15 18 -42 19
-58 3z"/>
<path d="M2460 3395 c0 -44 0 -45 33 -44 23 1 26 3 10 6 -27 5 -31 30 -5 36
16 4 16 5 0 6 -21 1 -24 21 -4 21 8 0 18 5 21 10 4 6 -7 10 -24 10 -30 0 -31
-1 -31 -45z"/>
<path d="M2569 3424 c-12 -15 -11 -16 9 -10 29 10 29 -10 0 -41 l-21 -23 34 1
c19 1 26 3 17 6 -16 4 -16 6 -2 29 28 42 -6 76 -37 38z"/>
<path d="M2642 3428 c-28 -28 -3 -84 34 -76 28 5 40 33 26 62 -12 28 -40 34
-60 14z m43 -38 c0 -36 -29 -33 -33 3 -3 23 0 28 15 25 12 -2 18 -12 18 -28z"/>
<path d="M2729 3436 c-8 -9 3 -86 12 -86 5 0 9 20 9 45 0 40 -7 54 -21 41z"/>
<path d="M2774 3425 c-3 -8 -3 -18 0 -24 4 -5 2 -12 -3 -16 -20 -12 1 -36 28
-33 22 2 26 8 26 33 0 17 -4 36 -9 43 -12 16 -35 15 -42 -3z m36 -15 c0 -5 -4
-10 -9 -10 -6 0 -13 5 -16 10 -3 6 1 10 9 10 9 0 16 -4 16 -10z m0 -35 c0 -8
-4 -15 -9 -15 -13 0 -22 16 -14 24 11 11 23 6 23 -9z"/>
<path d="M2355 3157 c-3 -7 -5 -49 -3 -93 l3 -79 163 -5 c157 -5 165 -6 183
-29 18 -22 19 -44 19 -362 l0 -339 96 0 95 0 -3 353 c-3 334 -4 354 -24 398
-27 59 -85 116 -143 143 -40 18 -69 21 -213 24 -138 3 -169 1 -173 -11z"/>
<path d="M2910 3075 l0 -95 180 0 180 0 0 95 0 95 -180 0 -180 0 0 -95z"/>
<path d="M1690 2815 l0 -95 159 0 159 0 26 -31 26 -31 0 -334 0 -334 90 0 91
0 -3 363 c-3 413 -2 405 -94 486 -68 59 -117 71 -301 71 l-153 0 0 -95z"/>
<path d="M2240 2815 l0 -95 183 2 182 3 3 93 3 92 -186 0 -185 0 0 -95z"/>
<path d="M3221 2899 c-48 -15 -104 -52 -139 -95 -57 -69 -62 -101 -62 -381 l0
-253 90 0 90 0 0 -90 0 -90 370 0 370 0 0 140 0 141 -92 -3 -93 -3 -3 -48 -3
-47 -272 2 -272 3 0 248 0 249 28 24 c28 24 29 24 273 24 l244 0 0 -90 0 -90
95 0 96 0 -3 93 -3 92 -87 3 -87 3 -3 87 -3 87 -250 2 c-139 1 -265 -3 -284
-8z"/>
<path d="M1247 2653 c-4 -3 -7 -44 -7 -89 l0 -83 -87 -3 -88 -3 0 -265 0 -265
27 -50 c31 -60 67 -95 128 -127 43 -22 54 -23 313 -26 l267 -3 0 91 0 90 90 0
90 0 0 68 c0 81 -12 127 -45 176 l-24 36 24 36 c34 50 48 109 42 175 -6 72
-35 127 -93 178 -73 64 -109 71 -389 71 -133 0 -245 -3 -248 -7z m520 -205
c29 -33 35 -57 22 -95 -18 -57 -43 -63 -259 -63 l-190 0 0 -89 0 -90 200 -3
200 -3 27 -27 c23 -23 28 -38 31 -93 l4 -66 -252 3 -252 3 -24 28 c-24 28 -24
29 -24 273 l0 244 248 0 c245 0 249 0 269 -22z"/>
<path d="M2400 2296 c0 -376 2 -393 59 -465 16 -20 53 -50 83 -67 l53 -29 318
-3 317 -3 0 90 0 90 -301 3 -301 3 -24 28 -24 28 0 335 0 334 -90 0 -90 0 0
-344z"/>
<path d="M2170 1596 c0 -44 1 -46 29 -46 27 0 47 21 33 35 -3 3 -7 16 -7 28 0
16 -7 23 -27 25 -27 3 -28 2 -28 -42z m45 14 c-3 -5 -10 -10 -16 -10 -5 0 -9
5 -9 10 0 6 7 10 16 10 8 0 12 -4 9 -10z m-3 -35 c0 -5 -5 -11 -11 -13 -6 -2
-11 4 -11 13 0 9 5 15 11 13 6 -2 11 -8 11 -13z"/>
<path d="M2250 1595 c0 -44 1 -45 33 -44 27 1 29 2 9 7 -28 8 -30 24 -6 32 15
6 14 8 -7 15 l-24 8 23 4 c30 6 28 23 -3 23 -23 0 -25 -4 -25 -45z"/>
<path d="M2320 1630 c0 -5 5 -10 10 -10 6 0 10 -16 10 -35 0 -19 5 -35 10 -35
6 0 10 16 10 35 0 19 5 35 10 35 6 0 10 5 10 10 0 6 -13 10 -30 10 -16 0 -30
-4 -30 -10z"/>
<path d="M2390 1636 c0 -2 9 -23 20 -47 13 -29 20 -37 20 -23 0 11 7 29 15 40
17 22 19 34 6 34 -5 0 -13 -10 -17 -22 l-7 -23 -10 23 c-8 18 -27 31 -27 18z"/>
<path d="M2470 1595 c0 -44 0 -45 33 -44 23 1 26 3 10 6 -19 4 -23 11 -23 44
0 21 -4 39 -10 39 -5 0 -10 -20 -10 -45z"/>
<path d="M2540 1595 c0 -25 5 -45 10 -45 6 0 10 20 10 45 0 25 -4 45 -10 45
-5 0 -10 -20 -10 -45z"/>
<path d="M2570 1630 c0 -5 5 -10 10 -10 6 0 10 -16 10 -35 0 -19 5 -35 10 -35
6 0 10 16 10 35 0 19 5 35 10 35 6 0 10 5 10 10 0 6 -13 10 -30 10 -16 0 -30
-4 -30 -10z"/>
<path d="M2653 1595 c0 -27 2 -38 4 -22 2 15 2 37 0 50 -2 12 -4 0 -4 -28z"/>
<path d="M2692 1628 c-7 -7 -12 -21 -12 -33 0 -41 45 -60 70 -30 14 17 0 21
-17 4 -16 -16 -33 -2 -33 28 0 23 3 25 31 19 27 -5 30 -4 19 9 -15 18 -42 19
-58 3z"/>
<path d="M2773 1624 c-4 -11 2 -23 18 -35 13 -10 21 -21 17 -25 -4 -4 -15 -1
-24 7 -15 12 -17 12 -12 -1 7 -22 47 -25 55 -4 4 11 -2 23 -18 36 l-24 19 24
-6 c17 -5 22 -4 19 6 -7 21 -47 23 -55 3z"/>
</g>
</svg>
